<svg width="192" height="38" viewBox="0 0 192 38" fill="none" xmlns="http://www.w3.org/2000/svg">
<path d="M65.24 27.76C63.6 28.64 61.96 28.96 60.2 28.96C54.84 28.96 51.12 25.24 51.12 20C51.12 14.68 54.84 11.04 60.28 11.04C63.12 11.04 65.48 12.04 67.52 14.2L71.68 10.36C68.96 7.2 64.88 5.52 59.96 5.52C51.04 5.52 44.56 11.56 44.56 20C44.56 28.44 51.04 34.48 59.84 34.48C63.84 34.48 68.08 33.24 71.16 30.92V19.56H65.24V27.76Z" fill="white"/>
<path d="M100.979 34L94.6994 25C98.3394 23.44 100.459 20.36 100.459 16.16C100.459 9.88 95.7794 6 88.2994 6H76.1794V34H82.6594V26.2H88.6194L94.0194 34H100.979ZM93.8994 16.16C93.8994 19.2 91.8994 21.04 87.9394 21.04H82.6594V11.28H87.9394C91.8994 11.28 93.8994 13.08 93.8994 16.16Z" fill="white"/>
<path d="M127.513 34H134.313L121.793 6H115.393L102.913 34H109.553L112.033 28H125.033L127.513 34ZM114.113 23.08L118.553 12.36L122.993 23.08H114.113Z" fill="white"/>
<path d="M149.338 6H137.218V34H143.698V26.28H149.338C156.818 26.28 161.498 22.4 161.498 16.16C161.498 9.88 156.818 6 149.338 6ZM148.978 21H143.698V11.28H148.978C152.938 11.28 154.938 13.08 154.938 16.16C154.938 19.2 152.938 21 148.978 21Z" fill="white"/>
<path d="M185.325 6V17.04H172.605V6H166.125V34H172.605V22.52H185.325V34H191.805V6H185.325Z" fill="white"/>
<path d="M19.8038 24.5691C20.9071 24.5691 21.9351 24.3702 22.9631 23.8232V18.7265H26.674V25.7873C24.7434 27.2293 22.0855 28 19.5782 28C14.0619 28 10 24.2459 10 19C10 13.7541 14.0619 10 19.6534 10C22.7375 10 25.295 11.0442 27 13.0083L24.3923 15.395C23.1136 14.0525 21.6342 13.4309 19.854 13.4309C16.444 13.4309 14.1121 15.6934 14.1121 19C14.1121 22.2569 16.444 24.5691 19.8038 24.5691Z" fill="white"/>
<path fill-rule="evenodd" clip-rule="evenodd" d="M38 19C38 29.4934 29.4934 38 19 38C8.50659 38 0 29.4934 0 19C0 8.50659 8.50659 0 19 0C29.4934 0 38 8.50659 38 19ZM34 19C34 27.2843 27.2843 34 19 34C10.7157 34 4 27.2843 4 19C4 10.7157 10.7157 4 19 4C27.2843 4 34 10.7157 34 19Z" fill="white"/>
</svg>
